<svg width="48" height="64" viewBox="0 0 48 64" fill="none" xmlns="http://www.w3.org/2000/svg"><rect y="48" width="16" height="16" rx="4" fill="#F6F6F6"/><rect x=".5" y="32.5" width="15" height="15" rx="3.5" fill="#F6F6F6" stroke="#C1C4D6"/><rect x=".5" y="16.5" width="15" height="15" rx="3.5" fill="#fff" stroke="#8F95B2"/><rect x=".5" y=".5" width="15" height="15" rx="3.5" fill="#fff" stroke="#D8DAE5"/><rect x="16" y="48" width="16" height="16" rx="4" fill="#F6F6F6"/><rect x="20" y="55" width="8" height="2" rx="1" fill="#C1C4D6"/><rect x="16" y="32" width="16" height="16" rx="4" fill="#000"/><rect x="20" y="39" width="8" height="2" rx="1" fill="#fff"/><rect x="16" y="16" width="16" height="16" rx="4" fill="#5FCF86"/><rect x="20" y="23" width="8" height="2" rx="1" fill="#fff"/><rect x="16" width="16" height="16" rx="4" fill="#5FCF86"/><rect x="20" y="7" width="8" height="2" rx="1" fill="#fff"/><rect x="32" y="48" width="16" height="16" rx="4" fill="#F6F6F6"/><path d="M44 52.5c-.28 0-.53.11-.71.29l-3.581 3.59a1 1 0 01-1.417-.001L36.71 54.79a1.003 1.003 0 00-1.42 1.42l3 3c.18.18.43.29.71.29.28 0 .53-.11.71-.29l5-5A1.003 1.003 0 0044 52.5z" fill="#C1C4D6"/><rect x="32" y="32" width="16" height="16" rx="4" fill="#000"/><path d="M44 36.5c-.28 0-.53.11-.71.29L39 41.09l-2.29-2.3a1.003 1.003 0 00-1.42 1.42l3 3c.18.18.43.29.71.29.28 0 .53-.11.71-.29l5-5A1.003 1.003 0 0044 36.5z" fill="#fff"/><rect x="32" y="16" width="16" height="16" rx="4" fill="#5FCF86"/><path d="M44 20.5c-.28 0-.53.11-.71.29L39 25.09l-2.29-2.3a1.003 1.003 0 00-1.42 1.42l3 3c.18.18.43.29.71.29.28 0 .53-.11.71-.29l5-5A1.003 1.003 0 0044 20.5z" fill="#fff"/><rect x="32" width="16" height="16" rx="4" fill="#5FCF86"/><path d="M44 4.5c-.28 0-.53.11-.71.29L39 9.09l-2.29-2.3a1.003 1.003 0 00-1.42 1.42l3 3c.18.18.43.29.71.29.28 0 .53-.11.71-.29l5-5A1.003 1.003 0 0044 4.5z" fill="#fff"/></svg>