<svg width="34" height="86" viewBox="0 0 34 86" fill="none" xmlns="http://www.w3.org/2000/svg">
<circle cx="3" cy="83" r="3" transform="rotate(-90 3 83)" fill="#57DD98"/>
<circle cx="3" cy="67" r="3" transform="rotate(-90 3 67)" fill="#57DD98"/>
<circle cx="3" cy="51" r="3" transform="rotate(-90 3 51)" fill="#57DD98"/>
<circle cx="3" cy="35" r="3" transform="rotate(-90 3 35)" fill="#57DD98"/>
<circle cx="3" cy="19" r="3" transform="rotate(-90 3 19)" fill="#57DD98"/>
<circle cx="3" cy="3" r="3" transform="rotate(-90 3 3)" fill="#57DD98"/>
<circle cx="17" cy="83" r="3" transform="rotate(-90 17 83)" fill="#57DD98"/>
<circle cx="17" cy="67" r="3" transform="rotate(-90 17 67)" fill="#57DD98"/>
<circle cx="17" cy="51" r="3" transform="rotate(-90 17 51)" fill="#57DD98"/>
<circle cx="17" cy="35" r="3" transform="rotate(-90 17 35)" fill="#57DD98"/>
<circle cx="17" cy="19" r="3" transform="rotate(-90 17 19)" fill="#57DD98"/>
<circle cx="17" cy="3" r="3" transform="rotate(-90 17 3)" fill="#57DD98"/>
<circle cx="31" cy="83" r="3" transform="rotate(-90 31 83)" fill="#57DD98"/>
<circle cx="31" cy="67" r="3" transform="rotate(-90 31 67)" fill="#57DD98"/>
<circle cx="31" cy="51" r="3" transform="rotate(-90 31 51)" fill="#57DD98"/>
<circle cx="31" cy="35" r="3" transform="rotate(-90 31 35)" fill="#57DD98"/>
<circle cx="31" cy="19" r="3" transform="rotate(-90 31 19)" fill="#57DD98"/>
<circle cx="31" cy="3" r="3" transform="rotate(-90 31 3)" fill="#57DD98"/>
</svg>
